<?xml version="1.0" encoding="UTF-8" standalone="no"?>
<!DOCTYPE svg PUBLIC "-//W3C//DTD SVG 1.1//EN" "http://www.w3.org/Graphics/SVG/1.1/DTD/svg11.dtd">
<svg version="1.1" xmlns="http://www.w3.org/2000/svg" xmlns:xlink="http://www.w3.org/1999/xlink" preserveAspectRatio="xMidYMid meet" viewBox="19.34890371782646 163.5115142057184 610.6813023178139 247.3009262823802" width="596.68" height="233.3"><defs><path d="M623.03 333.73C521.92 333.73 458.72 333.73 433.44 333.73C426.06 333.73 419.22 329.83 415.47 323.46C412.97 319.24 410.89 317.35 409.21 317.79C403.05 319.43 388.78 357.4 378.98 337.48C369.19 317.56 359.95 224.28 344.28 225.92C328.61 227.56 314.89 316.15 303.98 337.48C293.06 358.81 281.59 309.48 274.87 323.31C274.4 324.28 273.61 327.5 272.51 332.97C259.04 397.17 248.64 417.74 241.29 394.66C228.97 355.99 236.81 186.55 216.66 171.55C196.51 156.55 188.11 308.42 171.88 342.17C155.65 375.91 155.09 308.65 147.25 306.54C142.79 305.34 137.07 312.93 130.1 329.3C128.96 331.99 126.33 333.73 123.41 333.73C110.47 333.73 78.11 333.73 26.35 333.73" id="gYjVMtSpT"></path></defs><g><g><g><filter id="shadow5953748" x="10.35" y="154.51" width="628.68" height="265.3" filterUnits="userSpaceOnUse" primitiveUnits="userSpaceOnUse"><feFlood></feFlood><feComposite in2="SourceAlpha" operator="in"></feComposite><feGaussianBlur stdDeviation="2"></feGaussianBlur><feOffset dx="0" dy="0" result="afterOffset"></feOffset><feFlood flood-color="#00ffff" flood-opacity="1"></feFlood><feComposite in2="afterOffset" operator="in"></feComposite><feMorphology operator="dilate" radius="3"></feMorphology><feComposite in2="SourceAlpha" operator="out"></feComposite></filter><path d="M623.03 333.73C521.92 333.73 458.72 333.73 433.44 333.73C426.06 333.73 419.22 329.83 415.47 323.46C412.97 319.24 410.89 317.35 409.21 317.79C403.05 319.43 388.78 357.4 378.98 337.48C369.19 317.56 359.95 224.28 344.28 225.92C328.61 227.56 314.89 316.15 303.98 337.48C293.06 358.81 281.59 309.48 274.87 323.31C274.4 324.28 273.61 327.5 272.51 332.97C259.04 397.17 248.64 417.74 241.29 394.66C228.97 355.99 236.81 186.55 216.66 171.55C196.51 156.55 188.11 308.42 171.88 342.17C155.65 375.91 155.09 308.65 147.25 306.54C142.79 305.34 137.07 312.93 130.1 329.3C128.96 331.99 126.33 333.73 123.41 333.73C110.47 333.73 78.11 333.73 26.35 333.73" id="a88eGoHc0" fill="none" stroke="white" filter="url(#shadow5953748)"></path></g><g><use xlink:href="#gYjVMtSpT" opacity="1" fill-opacity="0" stroke="#00ffff" stroke-width="5" stroke-opacity="1"></use></g></g></g></svg>